<?xml version="1.0" encoding="utf-8"?>
<!-- Generator: Adobe Illustrator 19.0.0, SVG Export Plug-In . SVG Version: 6.00 Build 0)  -->
<svg version="1.1" id="Layer_1" xmlns="http://www.w3.org/2000/svg" xmlns:xlink="http://www.w3.org/1999/xlink" x="0px" y="0px"
	 viewBox="0 0 315 93.9" style="enable-background:new 0 0 315 93.9;" xml:space="preserve">
<style type="text/css">
	.st0{fill:#010101;}
</style>
<path class="st0" d="M67,92.7c-23.4-4.1-43.4-18.2-56.6-40c-2.6-4.3-7.4-15.7-8-19C1.3,28.1,0,19.3,0,18.2c0-0.8,1.5,0.8,3.4,3.5
	c8.8,12.9,18.2,18.8,30.4,19.2c12.1,0.3,14.9-1.2,29-15.3C74.5,13.8,88.3,3.2,91.9,3.2c0.9,0,2.2-0.6,2.9-1.2
	c0.9-0.9,5.7-1.2,16.9-1.2c15.6,0,15.7,0,21.7,3.2c9.1,4.7,14,8.7,19.2,15.4c4.6,6,4.7,6,6.2,3.9c2.7-3.9,12.8-14.1,13.9-14.1
	c0.6,0,1.1-0.3,1.1-0.8c0-1.2,6.1-4.3,12.4-6.4c8.5-2.7,24.9-2.7,33.6,0.1c3.6,1.1,6.7,2.4,7,2.8c0.3,0.4,2.1,1.5,4.1,2.5
	c5.1,2.6,11.2,7.8,21.5,18.3c11.8,12.1,15.9,14.6,25,15.2c9.7,0.6,17.9-2.3,26.6-9.6c1.9-1.6,7.1-8.9,9.7-13.7
	c2-3.5,1.4,5.2-0.9,14.6c-1.9,7.7-6.9,19.7-9.4,22.6c-0.6,0.7-2.1,2.9-3.5,4.9c-3.7,5.6-14.8,16.6-20.5,20.2
	C267,88.1,253.1,92.8,239,93.6c-8.5,0.5-23.7-0.8-27.5-2.4c-1.1-0.5-4-1.4-6.5-2s-6.9-2.3-9.8-3.6c-2.9-1.3-5.5-2.4-5.7-2.4
	c-1,0-13.6-8.1-19.3-12.4c-3.3-2.5-7.6-6.4-9.4-8.5l-3.3-3.9l-3.2,3.8c-3.3,4-17.4,15-19.1,15c-0.5,0-1.1,0.4-1.3,0.9
	c-0.2,0.5-3.9,2.7-8.3,4.9C106.5,92.4,85.6,95.9,67,92.7z"/>
</svg>
