<?xml version="1.0" encoding="utf-8"?>
<!-- Generator: Adobe Illustrator 19.0.0, SVG Export Plug-In . SVG Version: 6.00 Build 0)  -->
<svg version="1.1" id="Layer_1" xmlns="http://www.w3.org/2000/svg" xmlns:xlink="http://www.w3.org/1999/xlink" x="0px" y="0px"
	 viewBox="0 0 356.8 73.1" style="enable-background:new 0 0 356.8 73.1;" xml:space="preserve">
<style type="text/css">
	.st0{fill:#010101;}
</style>
<path class="st0" d="M298,72c-7.8-1.1-14.8-3.2-33.9-10.2c-2.1-0.8-9.3-4.3-16-7.8c-14.1-7.4-19.4-9.6-29.6-12.6
	c-12.3-3.6-13.3-3.8-18.5-4.5c-8.9-1.2-8.8-0.8-6-16c0.2-1.1,0.4-3,0.4-4.3c0.1-2.2,0.3-2.3,6.3-1.7c6.3,0.6,20.6,3.9,24.2,5.5
	c1.1,0.5,4.5,2,7.6,3.3s7.9,4,10.7,6s5.5,3.6,5.9,3.6s2,1,3.5,2.2c4.2,3.5,7.6,5.8,16.3,11.3c7.1,4.4,9.8,5.9,18,9.5
	c4.7,2.1,11.5,3.8,17.5,4.5c3.6,0.4,7.9,0.9,9.5,1.1c3.9,0.5,14.8-2.1,18.3-4.3c7.8-5,12.4-11.7,14.7-21.5
	c2.5-10.8-0.1-21.3-6.6-26.1c-5.2-3.9-16.7-1.9-24.3,4.2c-1.1,0.9-0.4-0.4,1.5-2.8c8.5-10.6,20.5-11.8,30.5-3
	c7.3,6.4,10.3,17.7,7.9,29.5c-1.4,6.9-6.6,18.6-9.8,22.1C335.8,71.4,320.6,75.1,298,72L298,72z"/>
<path class="st0" d="M36,69.7c-6.1-0.7-13.6-3.2-17-5.5c-5.5-3.9-9.7-8.8-13.3-15.8c-9.5-18.4-7-35.8,6.4-44.8
	c8.9-5.9,16.5-4.7,26,3.9c2.4,2.2,4.4,4.5,4.4,5.2c0,0.8-0.2,0.8-0.8,0c-1.1-1.7-10.3-6.3-14-7C12.3,2.9,3.6,21.5,11.9,39.7
	c8,17.5,25.7,23.2,50.2,16.2c11.1-3.2,19.7-7.6,34.3-17.4c6.2-4.2,12.1-8.1,13-8.6s3-1.9,4.7-3.1c8.9-6.2,22.6-11.3,35.5-13.4
	c4.1-0.7,8.5-1.4,9.7-1.5c1.2-0.2,2.5,0.1,2.9,0.7c0.3,0.6,1.2,5.4,1.8,10.8l1.2,9.8l-5,0.6c-5.7,0.7-19.5,3.9-27,6.2
	c-2.8,0.9-13.6,5.8-24,10.9c-22.3,10.9-26.7,12.7-40,16C59.5,69.3,43.7,70.7,36,69.7L36,69.7z"/>
</svg>
