<?xml version="1.0" encoding="utf-8"?>
<!-- Generator: Adobe Illustrator 19.0.0, SVG Export Plug-In . SVG Version: 6.00 Build 0)  -->
<svg version="1.1" id="Layer_1" xmlns="http://www.w3.org/2000/svg" xmlns:xlink="http://www.w3.org/1999/xlink" x="0px" y="0px"
	 viewBox="0 0 247 69.9" style="enable-background:new 0 0 247 69.9;" xml:space="preserve">
<style type="text/css">
	.st0{fill:#010101;}
</style>
<path class="st0" d="M31.9,69.4c-8.6-0.9-14.5-3.4-20.4-8.8c-11.8-10.5-15-29.2-7.3-43.3c3.5-6.4,8.1-10.4,16.3-14.3
	C26.3,0.4,28.1,0,36,0c7.4,0,9.7,0.4,13.3,2.3c5.4,2.9,8.2,7.3,8.2,13.2c0,7.2-4.9,13.1-13,15.5c-2.4,0.7-2.5,0.7-0.7-1.2
	c1-1.1,2.2-3.5,2.7-5.3c0.8-2.9,0.6-3.7-1.7-6.1c-8-8.4-20.4-4.4-23.9,7.7c-2.1,7.3-1.2,11.6,3.5,15.8c4.8,4.4,9.8,6,16.9,5.5
	c8.7-0.6,14-3.8,18.9-11.3c9.3-14.2,25-20.2,45.8-17.7c4.9,0.6,10.3,1.4,11.9,1.8c3.9,0.9,7.1,0.9,11.5,0c24.8-5,44.3-1.5,53.5,9.7
	c1.9,2.4,3.5,4.8,3.5,5.4c0,2,7.2,8.3,11.7,10.3c9,3.9,21.6,1.4,26.5-5.2c8.1-10.8-3.3-29.5-15.8-26c-7.9,2.2-10.8,8.8-6.2,14.6
	l2.2,2.8l-2.4-0.7c-3.9-1.2-8.4-4.6-10.9-8.2c-1.9-2.7-2.2-4.3-1.8-8.3c1-10.1,7.1-14.4,20.8-14.5c15.8-0.1,27,6.4,33.7,19.4
	c2.5,4.8,2.8,6.6,2.8,14.5c0,11.8-3.1,19.1-11.5,26.9c-7.8,7.2-14,9-31,8.9C179.2,69.6,129.1,58,125,51.4c-0.4-0.7-1.4-0.4-2.8,0.9
	c-6.4,5.9-50.5,16.3-74.1,17.5C43.1,70,35.8,69.9,31.9,69.4z"/>
</svg>
