<?xml version="1.0" encoding="utf-8"?>
<!-- Generator: Adobe Illustrator 19.0.0, SVG Export Plug-In . SVG Version: 6.00 Build 0)  -->
<svg version="1.1" id="Layer_1" xmlns="http://www.w3.org/2000/svg" xmlns:xlink="http://www.w3.org/1999/xlink" x="0px" y="0px"
	 viewBox="0 0 258.8 68.6" style="enable-background:new 0 0 258.8 68.6;" xml:space="preserve">
<style type="text/css">
	.st0{fill:#010101;}
</style>
<path class="st0" d="M43.9,67.8C31.7,66.3,19.2,61,9.6,53.3C0.5,46-2.2,37.9,1.8,29.3c4.6-10.1,22.4-19.1,27.6-13.9
	c1.7,1.7,2,5.1,0.7,7.3c-0.6,1-1,0.7-1.5-1.2C27.2,16,15,18.9,12.1,25.3c-2.7,6-0.6,14.1,4.3,16.3c5.4,2.5,15.1,1,23.9-3.5
	c3.6-1.9,13.4-9.1,19.1-14.3C72,12.6,78.8,7.8,87.9,3.5c5.9-2.8,7.4-3.1,16.5-3.1c8.3,0,10.9,0.4,15.2,2.3c2.8,1.3,6,3.2,6.9,4.2
	c2,2.3,3.7,2.4,5.3,0.5c2.2-2.7,11.8-6.6,17.8-7.2C156.4-0.5,167,1,172,3.5c3.9,1.9,14,8.6,17.7,11.7c1.4,1.2,6.1,5.3,10.6,9.2
	c14.5,12.8,25.3,18.4,35.5,18.4c4.8,0,9.5-2.2,11.1-5.1c1.8-3.3,1.5-10.2-0.6-13.2c-1.8-2.8-8-6.4-10.3-6.1
	c-0.7,0.1-2.1,0.2-3.2,0.3c-1.6,0.1-2,0.8-2,3.4c0,3.1-0.1,3.1-1.5,1.3c-3.3-4.4-0.5-9.6,5.3-9.6c7.3,0,18.5,7.6,22.3,15.1
	c2.3,4.6,2.5,10.9,0.3,15.4c-3.7,7.9-16.2,16.3-31.2,21.1c-13.8,4.4-45.6,4.1-65.7-0.6c-11.5-2.7-21.4-7.3-27.1-12.7
	c-3.2-3-6.4-3.7-6.4-1.3c0,0.5-2.6,2.6-5.9,4.7c-10.4,6.7-24.1,10.7-42,12.2C66,68.9,52.1,68.9,43.9,67.8L43.9,67.8z"/>
</svg>
