<?xml version="1.0" encoding="utf-8"?>
<!-- Generator: Adobe Illustrator 19.0.0, SVG Export Plug-In . SVG Version: 6.00 Build 0)  -->
<svg version="1.1"
	 id="svg2" sodipodi:docname="drawing2.svg" inkscape:version="0.47 r22583" xmlns:dc="http://purl.org/dc/elements/1.1/" xmlns:inkscape="http://www.inkscape.org/namespaces/inkscape" xmlns:svg="http://www.w3.org/2000/svg" xmlns:rdf="http://www.w3.org/1999/02/22-rdf-syntax-ns#" xmlns:sodipodi="http://sodipodi.sourceforge.net/DTD/sodipodi-0.dtd" xmlns:cc="http://creativecommons.org/ns#"
	 xmlns="http://www.w3.org/2000/svg" xmlns:xlink="http://www.w3.org/1999/xlink" x="0px" y="0px"
	 viewBox="234.6 123.3 437.6 251.2" style="enable-background:new 234.6 123.3 437.6 251.2;" xml:space="preserve">
<defs>
	
	
		<inkscape:perspective  inkscape:persp3d-origin="372.04724 : 350.78739 : 1" sodipodi:type="inkscape:persp3d" inkscape:vp_x="0 : 526.18109 : 1" inkscape:vp_z="744.09448 : 526.18109 : 1" inkscape:vp_y="0 : 1000 : 0" id="perspective10">
		</inkscape:perspective>
	
		<inkscape:perspective  inkscape:persp3d-origin="0.5 : 0.33333333 : 1" sodipodi:type="inkscape:persp3d" inkscape:vp_x="0 : 0.5 : 1" inkscape:vp_z="1 : 0.5 : 1" inkscape:vp_y="0 : 1000 : 0" id="perspective2824">
		</inkscape:perspective>
	
		<inkscape:perspective  inkscape:persp3d-origin="0.5 : 0.33333333 : 1" sodipodi:type="inkscape:persp3d" inkscape:vp_x="0 : 0.5 : 1" inkscape:vp_z="1 : 0.5 : 1" inkscape:vp_y="0 : 1000 : 0" id="perspective2840">
		</inkscape:perspective>
	
		<inkscape:perspective  inkscape:persp3d-origin="0.5 : 0.33333333 : 1" sodipodi:type="inkscape:persp3d" inkscape:vp_x="0 : 0.5 : 1" inkscape:vp_z="1 : 0.5 : 1" inkscape:vp_y="0 : 1000 : 0" id="perspective2854">
		</inkscape:perspective>
	
		<inkscape:perspective  inkscape:persp3d-origin="0.5 : 0.33333333 : 1" sodipodi:type="inkscape:persp3d" inkscape:vp_x="0 : 0.5 : 1" inkscape:vp_z="1 : 0.5 : 1" inkscape:vp_y="0 : 1000 : 0" id="perspective2868">
		</inkscape:perspective>
	
		<inkscape:perspective  inkscape:persp3d-origin="0.5 : 0.33333333 : 1" sodipodi:type="inkscape:persp3d" inkscape:vp_x="0 : 0.5 : 1" inkscape:vp_z="1 : 0.5 : 1" inkscape:vp_y="0 : 1000 : 0" id="perspective2882">
		</inkscape:perspective>
	
		<inkscape:perspective  inkscape:persp3d-origin="0.5 : 0.33333333 : 1" sodipodi:type="inkscape:persp3d" inkscape:vp_x="0 : 0.5 : 1" inkscape:vp_z="1 : 0.5 : 1" inkscape:vp_y="0 : 1000 : 0" id="perspective2977">
		</inkscape:perspective>
	
		<inkscape:perspective  inkscape:persp3d-origin="0.5 : 0.33333333 : 1" sodipodi:type="inkscape:persp3d" inkscape:vp_x="0 : 0.5 : 1" inkscape:vp_z="1 : 0.5 : 1" inkscape:vp_y="0 : 1000 : 0" id="perspective3097">
		</inkscape:perspective>
	
		<inkscape:perspective  inkscape:persp3d-origin="0.5 : 0.33333333 : 1" sodipodi:type="inkscape:persp3d" inkscape:vp_x="0 : 0.5 : 1" inkscape:vp_z="1 : 0.5 : 1" inkscape:vp_y="0 : 1000 : 0" id="perspective3194">
		</inkscape:perspective>
	
		<inkscape:perspective  inkscape:persp3d-origin="0.5 : 0.33333333 : 1" sodipodi:type="inkscape:persp3d" inkscape:vp_x="0 : 0.5 : 1" inkscape:vp_z="1 : 0.5 : 1" inkscape:vp_y="0 : 1000 : 0" id="perspective3312">
		</inkscape:perspective>
	
		<inkscape:perspective  inkscape:persp3d-origin="0.5 : 0.33333333 : 1" sodipodi:type="inkscape:persp3d" inkscape:vp_x="0 : 0.5 : 1" inkscape:vp_z="1 : 0.5 : 1" inkscape:vp_y="0 : 1000 : 0" id="perspective3409">
		</inkscape:perspective>
	
		<inkscape:perspective  inkscape:persp3d-origin="0.5 : 0.33333333 : 1" sodipodi:type="inkscape:persp3d" inkscape:vp_x="0 : 0.5 : 1" inkscape:vp_z="1 : 0.5 : 1" inkscape:vp_y="0 : 1000 : 0" id="perspective3506">
		</inkscape:perspective>
	
		<inkscape:perspective  inkscape:persp3d-origin="0.5 : 0.33333333 : 1" sodipodi:type="inkscape:persp3d" inkscape:vp_x="0 : 0.5 : 1" inkscape:vp_z="1 : 0.5 : 1" inkscape:vp_y="0 : 1000 : 0" id="perspective3603">
		</inkscape:perspective>
	
		<inkscape:perspective  inkscape:persp3d-origin="0.5 : 0.33333333 : 1" sodipodi:type="inkscape:persp3d" inkscape:vp_x="0 : 0.5 : 1" inkscape:vp_z="1 : 0.5 : 1" inkscape:vp_y="0 : 1000 : 0" id="perspective3700">
		</inkscape:perspective>
	
		<inkscape:perspective  inkscape:persp3d-origin="0.5 : 0.33333333 : 1" sodipodi:type="inkscape:persp3d" inkscape:vp_x="0 : 0.5 : 1" inkscape:vp_z="1 : 0.5 : 1" inkscape:vp_y="0 : 1000 : 0" id="perspective3819">
		</inkscape:perspective>
	
		<inkscape:perspective  inkscape:persp3d-origin="0.5 : 0.33333333 : 1" sodipodi:type="inkscape:persp3d" inkscape:vp_x="0 : 0.5 : 1" inkscape:vp_z="1 : 0.5 : 1" inkscape:vp_y="0 : 1000 : 0" id="perspective3916">
		</inkscape:perspective>
</defs>
<sodipodi:namedview  inkscape:window-maximized="0" inkscape:window-y="0" inkscape:window-x="76" inkscape:window-height="744" inkscape:window-width="703" inkscape:current-layer="layer1" inkscape:document-units="px" inkscape:pageshadow="2" inkscape:pageopacity="0.0" inkscape:cy="603.64323" bordercolor="#666666" pagecolor="#ffffff" inkscape:cx="467.22182" borderopacity="1.0" inkscape:zoom="0.41339581" showgrid="false" id="base">
	</sodipodi:namedview>
<g id="layer1" inkscape:groupmode="layer" inkscape:label="Layer 1">
	<path id="path3922" d="M608.3,371.2c-2.1-2.3-4.5-6.8-6.3-11.9c-2.5-7-2.9-9.7-2.9-18.4c0-5.7,0.5-10.7,1.1-11.5
		c0.6-0.8,1.4-2.7,1.8-4.4s1.6-4.9,2.7-7.2c1.6-3.4,1.8-4.6,0.9-6.3c-2.8-5.3-0.2-15.7,4.5-17.8c1.5-0.7,2.5-2.6,3.4-6.8
		c0.7-3.2,1.6-6.3,2.1-6.9c1.6-2.1,3.2-16.8,2.8-25.3c-0.5-8.9-2.5-15-7.1-22c-2.5-3.7-3.7-3.9-9.2-1.3c-2.2,1.1-4.5,2-5,2
		s-5.7,1.9-11.5,4.1s-13,4.9-16,6s-6.4,2.4-7.5,2.9c-1.1,0.5-7,2.8-13,5c-18.6,6.7-24.9,9.1-27,10c-1.1,0.5-6.5,2.6-12,4.6
		s-12.7,4.7-16,5.9s-7.1,2.6-8.5,3c-1.4,0.4-3,1.1-3.5,1.5s-3.5,1.5-6.5,2.5s-6,2.1-6.5,2.5c-0.5,0.4-2.9,1.3-5.2,2
		c-3.7,1.2-4.6,1.1-8.5-0.7c-7.4-3.5-17-7.8-24.8-11.2c-7.7-3.3-11.7-5.1-25.5-11.5c-4.4-2-15-6.8-23.5-10.7s-17.3-7.8-19.5-8.8
		c-2.2-1-6.2-2.8-9-4s-8.4-3.8-12.5-5.7c-10.3-4.7-14.3-6.6-22.5-10.3c-3.9-1.7-8.8-4-11-5c-2.2-1-6.2-2.8-9-4
		c-5-2.2-7-3.1-19.5-8.8c-3.6-1.6-9.6-4.4-13.5-6.2c-3.9-1.8-9.2-4.2-12-5.5c-11.5-5.3-16.6-7.5-17.5-7.5c-0.5,0-1-0.4-1-1
		c0-0.9,1.7-1.5,13.5-4.5c3.3-0.8,10.3-2.6,15.5-4c22.6-5.9,30-7.8,38-9.7c4.7-1.1,9.4-2.4,10.5-2.9s10.3-3,20.5-5.6
		c26.1-6.7,35.6-9.1,46.5-11.9c21.3-5.6,29.5-7.7,38.5-10c5.2-1.3,14-3.6,19.5-5s13-3.3,16.7-4.2l6.7-1.6l7.8,3.2
		c4.3,1.7,8.2,3.2,8.7,3.2c0.5,0,2.3,0.6,4,1.4s8.1,3.3,14.2,5.6s11.9,4.5,13,5c5.5,2.4,33.2,13,33.9,13c0.4,0,2.2,0.6,4,1.4
		c4.2,1.9,21.4,8.6,22.2,8.6c0.3,0,2,0.6,3.8,1.4c1.7,0.8,8.1,3.3,14.2,5.6c6,2.3,12.3,4.7,14,5.4s4.1,1.6,5.5,2s3.8,1.3,5.5,2.1
		c4.5,2,21.4,8.4,22.1,8.4c0.3,0,2,0.6,3.8,1.4c4,1.9,21.4,8.6,22.2,8.6c0.5,0,4.1,1.5,11.5,4.8c1.8,0.8,2,1.1,0.7,1.2
		c-1,0-2.5,0.5-3.5,1c-2,1.1-19.9,8-20.8,8c-0.3,0-2,0.6-3.8,1.4c-1.7,0.8-7.1,2.8-11.9,4.6l-8.8,3.3l2.5,4.2
		c1.4,2.3,3.5,6.9,4.8,10.1c4.3,11.2,2.8,29.3-4.4,51l-2,6.1l2.2,4.2c2.9,5.5,2.2,11.2-1.7,15.2c-1.5,1.6-3.4,2.9-4.2,2.9
		c-1.2,0-1.4,1.4-0.9,7.2c0.9,13.2,8.4,31.6,15.2,37.6c2.5,2.2,3.1,3.2,2.2,4c-2.7,2.1-16.5,7.5-20.4,8
		C612,374.8,611.3,374.6,608.3,371.2L608.3,371.2z M439.9,352.9c-24.8-37.5-60.1-57.4-102.6-57.7l-13.7-0.1l0-6
		c0-9.7,4.6-35.9,6.9-40.3c0.5-0.9,1.7-3.8,2.6-6.4c0.9-2.6,1.9-4.8,2.1-4.8s3.4,1.4,7.1,3.1c3.7,1.7,8.5,3.9,10.7,4.9s7.1,3.3,11,5
		c8.8,4,21.4,9.8,24,11c1.1,0.5,5.5,2.5,9.8,4.4c4.3,2,8,3.6,8.2,3.6s4.6,2,9.7,4.4s12,5.6,15.3,7.1c8.7,3.9,13.1,6,20.9,9.5
		c5.5,2.5,7.6,3,10.5,2.5c2-0.4,4.1-1,4.6-1.5c0.5-0.4,3.5-1.6,6.5-2.5s6-2.1,6.5-2.5s2.8-1.3,5-2s5.4-1.8,7-2.6
		c2.7-1.2,13.6-5.3,32.5-12.1c3.6-1.3,7.4-2.8,8.5-3.3s4.5-1.8,7.5-2.9c3-1.1,8.7-3.1,12.5-4.6s9.7-3.6,13-4.7s6.5-2.5,7.2-3
		c5.1-4,9.1,40.1,5.4,60l-1.3,7.3l-4.7-0.7c-2.6-0.4-5.8-1.1-7.2-1.7c-3.6-1.4-33.3-2.1-41-0.9c-7.9,1.2-23,4.9-24.4,6.1
		c-0.6,0.4-3.2,1.6-5.7,2.5c-3.9,1.5-10.3,4.7-17.7,9.1c-6.1,3.6-20.1,15.3-26.7,22.3l-5,5.3L439.9,352.9L439.9,352.9z"/>
</g>
</svg>
